PathFileType  4	(X/Y/Z) C:\Users\antoi\Documents\MyRepositories\mobilecap\ResultsAnalysis
DataRate	CameraRate	NumFrames	NumMarkers	Units	OrigDataRate	OrigDataStartFrame	OrigNumFrames
100.0	100.0	4	51	mm	100.0	1	141
Frame#	Time	r_knee			r_shank_antsup			r_ankle			r_calc			r_5meta			r_toe			L_knee			L_shank_antsup			L_ankle			L_calc			L_5meta			L_toe			r_sh2			r_sh3			r_sh4			L_sh2			L_sh3			r_thigh1			r_thigh2			r_thigh3			r_thigh4			r_thigh5			L_thigh1			L_thigh2			L_thigh3			L_thigh4			r.ASIS			r.PSIS			L.ASIS			L.PSIS			C7			R_Shoulder			L_Shoulder			R_Sternum			L_Sternum			R_humerus			R_elbow_med			R_elbow_lat			R_forearm			R_wrist_radius			R_wrist_ulna			L_humerus			L_elbow_med			L_elbow_lat			L_forearm			L_wrist_radius			L_wrist_ulna			R_HJC			L_HJC			R_HJC_reg			L_HJC_reg			
		X1	Y1	Z1	X2	Y2	Z2	X3	Y3	Z3	X4	Y4	Z4	X5	Y5	Z5	X6	Y6	Z6	X7	Y7	Z7	X8	Y8	Z8	X9	Y9	Z9	X10	Y10	Z10	X11	Y11	Z11	X12	Y12	Z12	X13	Y13	Z13	X14	Y14	Z14	X15	Y15	Z15	X16	Y16	Z16	X17	Y17	Z17	X18	Y18	Z18	X19	Y19	Z19	X20	Y20	Z20	X21	Y21	Z21	X22	Y22	Z22	X23	Y23	Z23	X24	Y24	Z24	X25	Y25	Z25	X26	Y26	Z26	X27	Y27	Z27	X28	Y28	Z28	X29	Y29	Z29	X30	Y30	Z30	X31	Y31	Z31	X32	Y32	Z32	X33	Y33	Z33	X34	Y34	Z34	X35	Y35	Z35	X36	Y36	Z36	X37	Y37	Z37	X38	Y38	Z38	X39	Y39	Z39	X40	Y40	Z40	X41	Y41	Z41	X42	Y42	Z42	X43	Y43	Z43	X44	Y44	Z44	X45	Y45	Z45	X46	Y46	Z46	X47	Y47	Z47	X48	Y48	Z48	X49	Y49	Z49	X50	Y50	Z50	X51	Y51	Z51	

1	0.00000000	-103.92578	522.05439	-66.04840	-53.63529	462.99778	-58.71358	65.24855	114.39489	-92.55851	34.23083	45.28795	-139.71291	228.78654	114.37883	-66.28857	240.23355	159.05153	-121.28473	-377.49452	516.67410	-332.53812	-396.11358	391.61957	-333.97494	-581.84183	117.24138	-293.67166	-665.04408	85.14234	-259.62495	-428.75941	51.86503	-246.02520	-441.55266	28.50622	-314.71968	-6.64021	361.27308	-52.79489	-121.64299	432.86615	-39.14292	-82.06592	325.25065	-46.18752	-472.55678	436.04289	-354.48374	-525.75546	327.99142	-347.76909	-139.44228	838.86317	-34.66835	-98.53598	738.00623	-49.04671	-136.39740	692.42607	-15.62625	-242.51962	791.81164	-25.57227	-195.35953	687.51720	-24.44306	-236.46135	822.13773	-372.94685	-252.79071	686.70530	-358.58669	-353.89274	835.25376	-373.37894	-363.99271	695.28870	-363.09698	-157.12161	1019.24777	-85.74770	-360.27590	1063.56275	-138.20698	-182.21297	1011.73653	-343.55118	-370.92295	1067.68195	-241.69987	-370.61573	1568.40502	-218.29875	-310.93310	1522.58500	-39.57993	-293.23949	1534.20020	-376.79185	-216.54583	1499.72467	-181.95303	-214.90529	1498.26140	-235.61405	-366.03279	1258.17421	53.06727	-409.55343	1170.09207	-20.95642	-397.53939	1176.86103	61.67927	-351.55071	1023.19562	84.62939	-325.18437	908.85037	79.55883	-366.83827	917.33643	95.86111	-212.87193	1298.00343	-486.06261	-231.45834	1184.80406	-445.54300	-198.85552	1209.28726	-504.03903	-46.16197	1121.37290	-495.89426	39.35840	1080.23165	-468.83260	21.90075	1050.05053	-490.36148	-246.10848	943.41702	-79.85959	-269.90519	940.14049	-308.97075	-235.87209	937.24664	-117.57685	-253.36054	944.01266	-287.57105	
2	0.01000000	-89.71971	521.24679	-66.28037	-40.85133	461.12799	-59.13646	69.85566	110.74546	-93.45878	36.46718	43.36394	-140.03750	233.77062	106.14718	-68.68097	246.24291	150.50432	-123.59966	-364.73185	515.35377	-332.31293	-386.57564	390.73179	-334.11704	-578.93556	120.84073	-294.23348	-662.86456	91.11266	-260.06810	-428.44119	51.73344	-246.15904	-441.45356	28.42924	-314.76886	4.23880	358.19317	-53.86324	-109.03955	432.27397	-38.77450	-71.69267	323.81117	-45.91721	-461.91821	436.95055	-354.56081	-517.81308	330.46329	-347.81450	-122.97930	839.06073	-34.45085	-82.06866	738.33764	-49.07936	-119.93658	692.64244	-15.77326	-226.11852	792.14693	-24.53537	-178.52338	687.51409	-24.63642	-222.76356	820.60322	-371.69072	-239.19884	685.22816	-357.54182	-340.18376	833.79132	-372.43368	-350.29702	693.80127	-362.09244	-142.97891	1018.84103	-84.24506	-346.38801	1062.45466	-137.44721	-168.29782	1009.95173	-342.31800	-356.91014	1066.16536	-240.88121	-357.48505	1567.02959	-217.08629	-297.93640	1521.17369	-38.31063	-280.62148	1532.94184	-375.65189	-203.34945	1498.66172	-180.70194	-201.75975	1497.19262	-234.46173	-352.25290	1256.53700	54.06697	-395.47479	1168.40682	-20.03408	-383.53125	1175.14321	62.61537	-337.96629	1021.53064	85.74688	-311.88556	907.08902	80.75314	-353.69418	915.64600	97.05026	-201.41176	1296.38503	-484.79224	-220.21446	1183.14155	-444.35459	-187.58178	1207.65721	-502.88992	-35.05381	1119.44033	-494.39069	50.50771	1078.20394	-467.02680	32.96513	1048.01582	-488.75737	-232.02304	942.89052	-78.26820	-255.69369	938.38036	-307.36582	-221.74709	936.22009	-115.89489	-239.06687	942.32618	-286.15755	
3	0.02000000	-75.88032	520.40450	-66.48033	-28.23750	459.25999	-59.61814	74.56341	107.34798	-94.47684	38.71814	41.85468	-140.45134	238.59780	98.16255	-71.05056	252.24036	142.12256	-125.92606	-351.65781	514.11562	-332.11534	-376.71921	389.97205	-334.40451	-575.76052	124.68494	-294.81426	-660.36700	97.48841	-260.48061	-428.11575	51.45836	-246.30193	-441.37793	28.32080	-314.79597	15.02695	355.22181	-55.00659	-96.59789	431.61212	-38.45616	-61.36620	322.36598	-45.78946	-450.95422	438.04528	-354.62567	-509.55616	333.13383	-347.86395	-106.51630	839.23064	-34.09794	-65.74427	738.56465	-49.03877	-103.77608	692.75498	-16.04015	-209.80871	792.54017	-23.49155	-161.94154	687.60526	-24.98493	-208.88476	819.18647	-370.42024	-225.33885	683.84296	-356.56498	-326.28835	832.37132	-371.41843	-336.34626	692.36201	-361.09219	-128.72046	1018.59892	-82.70752	-332.37506	1061.39934	-136.63819	-154.21410	1008.27128	-341.03528	-342.78796	1064.72514	-240.00629	-344.37141	1565.73051	-215.83101	-284.91210	1519.83839	-37.01914	-267.96873	1531.74997	-374.46679	-190.13516	1497.66049	-179.43396	-188.59795	1496.18846	-233.27298	-338.39272	1254.96491	55.09710	-381.29873	1166.78238	-19.07754	-369.43402	1173.50076	63.58467	-324.21969	1019.94194	86.88499	-298.38773	905.41636	81.97093	-340.41876	914.00404	98.24176	-190.00077	1294.80743	-483.50854	-209.08438	1181.53740	-443.12174	-176.40988	1206.05720	-501.70710	-24.12864	1117.46239	-492.89311	61.43050	1076.01289	-465.25083	43.81056	1045.85896	-487.17805	-217.77669	942.48657	-76.61979	-241.31000	936.70934	-305.70143	-207.42219	935.26772	-114.18702	-224.59879	940.75168	-284.70478	
4	0.03000000	-62.65659	519.54492	-66.60974	-15.89080	457.43740	-60.18787	79.44325	104.39756	-95.65608	40.99476	41.06745	-140.99330	243.15789	90.57492	-73.37321	258.21105	133.99154	-128.26462	-337.98888	513.02415	-332.00786	-366.25829	389.45446	-334.97773	-572.06907	128.99014	-295.43461	-657.25612	104.62889	-260.83869	-427.75329	50.94472	-246.46674	-441.33964	28.15538	-314.78258	25.68933	352.47461	-56.25867	-84.39902	430.87095	-38.19338	-51.08661	320.95195	-45.86756	-439.37531	439.49561	-354.65895	-500.69366	336.17366	-347.92908	-90.12277	839.35386	-33.51305	-49.72919	738.61001	-48.85166	-88.17054	692.70842	-16.44897	-193.70827	793.04089	-22.42585	-145.85295	687.85419	-25.52672	-194.66083	817.99100	-369.12602	-210.97430	682.63639	-355.72925	-312.04024	831.03731	-370.27415	-321.91743	691.01993	-360.11098	-114.26260	1018.64283	-81.12099	-318.14611	1060.45880	-135.73761	-139.83503	1006.79256	-339.67261	-328.47400	1063.42553	-239.03136	-331.28495	1564.57722	-214.49938	-271.83989	1518.64786	-35.68614	-255.25781	1530.68511	-373.20567	-176.89870	1496.78363	-178.13600	-175.41526	1495.31208	-232.02253	-324.38839	1253.51653	56.18780	-366.94882	1165.27245	-18.05625	-355.16766	1171.99328	64.61557	-310.17975	1018.49366	88.06145	-284.52602	903.90587	83.22879	-326.87591	912.46020	99.44411	-178.68296	1293.30736	-482.19893	-198.15894	1180.04211	-441.80836	-165.42690	1204.51462	-500.46200	-13.53198	1115.39831	-491.40256	71.94433	1073.52411	-463.52819	54.25267	1043.47805	-485.64290	-203.25115	942.30138	-74.88011	-226.63146	935.21169	-303.94143	-192.76460	934.48251	-112.43436	-209.83631	939.38466	-283.18055	
